<svg width="40" height="41" viewBox="0 0 40 41" fill="none" xmlns="http://www.w3.org/2000/svg">
<path d="M0.824 40L1.44 36.864H6.536L13.536 3.936H8.44L9.112 0.799997H16.336C17.12 0.799997 17.8853 0.781331 18.632 0.743998C19.3787 0.706665 20.1627 0.669332 20.984 0.631999C21.8053 0.594664 22.6827 0.55733 23.616 0.519998C24.5493 0.482665 25.576 0.463998 26.696 0.463998C28.376 0.463998 29.9627 0.613332 31.456 0.911999C32.9867 1.17333 34.312 1.62133 35.432 2.256C36.552 2.89067 37.4293 3.73067 38.064 4.776C38.736 5.784 39.072 7.03466 39.072 8.528C39.072 11.44 38.12 13.8107 36.216 15.64C34.312 17.432 31.8107 18.5707 28.712 19.056V19.28C29.6453 19.3547 30.5973 19.56 31.568 19.896C32.5387 20.1947 33.4347 20.68 34.256 21.352C35.0773 22.024 35.7493 22.8827 36.272 23.928C36.7947 24.936 37.056 26.168 37.056 27.624C37.056 29.7147 36.5707 31.544 35.6 33.112C34.6293 34.68 33.2667 36.0053 31.512 37.088C29.7947 38.1707 27.7413 38.992 25.352 39.552C22.9627 40.0747 20.368 40.336 17.568 40.336C16.112 40.336 14.4693 40.28 12.64 40.168C10.8107 40.056 9.056 40 7.376 40H0.824ZM18.688 37.2C20.1813 37.2 21.6373 37.0133 23.056 36.64C24.4747 36.2293 25.744 35.632 26.864 34.848C27.984 34.0267 28.88 33.0187 29.552 31.824C30.224 30.6293 30.56 29.2293 30.56 27.624C30.56 25.3093 29.6827 23.7227 27.928 22.864C26.1733 21.968 23.7653 21.52 20.704 21.52H16.056L12.864 36.696C13.3867 36.8453 14.0587 36.976 14.88 37.088C15.7013 37.1627 16.9707 37.2 18.688 37.2ZM19.752 18.552C20.4987 18.552 21.3387 18.5333 22.272 18.496C23.2427 18.4213 24.0453 18.3467 24.68 18.272C26.248 17.7867 27.536 17.208 28.544 16.536C29.552 15.8267 30.3547 15.0613 30.952 14.24C31.5493 13.4187 31.96 12.56 32.184 11.664C32.4453 10.7307 32.576 9.816 32.576 8.92C32.576 7.38933 32.0347 6.12 30.952 5.112C29.9067 4.104 28.0587 3.6 25.408 3.6C24.1387 3.6 23.0373 3.63733 22.104 3.712C21.208 3.74933 20.4427 3.80533 19.808 3.88L16.672 18.552H19.752Z" fill="url(#paint0_linear_153_6)"/>
<defs>
<linearGradient id="paint0_linear_153_6" x1="21" y1="-18" x2="21" y2="56" gradientUnits="userSpaceOnUse">
<stop offset="0.40625" stop-color="#FF0000"/>
<stop offset="0.578125" stop-color="#EBFBFF"/>
</linearGradient>
</defs>
</svg>
