<svg width="322" height="41" viewBox="0 0 322 41" fill="none" xmlns="http://www.w3.org/2000/svg">
<path d="M0.824 40L1.44 36.864H6.536L13.536 3.936H8.44L9.112 0.799997H16.336C17.12 0.799997 17.8853 0.781331 18.632 0.743998C19.3787 0.706665 20.1627 0.669332 20.984 0.631999C21.8053 0.594664 22.6827 0.55733 23.616 0.519998C24.5493 0.482665 25.576 0.463998 26.696 0.463998C28.376 0.463998 29.9627 0.613332 31.456 0.911999C32.9867 1.17333 34.312 1.62133 35.432 2.256C36.552 2.89067 37.4293 3.73067 38.064 4.776C38.736 5.784 39.072 7.03466 39.072 8.528C39.072 11.44 38.12 13.8107 36.216 15.64C34.312 17.432 31.8107 18.5707 28.712 19.056V19.28C29.6453 19.3547 30.5973 19.56 31.568 19.896C32.5387 20.1947 33.4347 20.68 34.256 21.352C35.0773 22.024 35.7493 22.8827 36.272 23.928C36.7947 24.936 37.056 26.168 37.056 27.624C37.056 29.7147 36.5707 31.544 35.6 33.112C34.6293 34.68 33.2667 36.0053 31.512 37.088C29.7947 38.1707 27.7413 38.992 25.352 39.552C22.9627 40.0747 20.368 40.336 17.568 40.336C16.112 40.336 14.4693 40.28 12.64 40.168C10.8107 40.056 9.056 40 7.376 40H0.824ZM18.688 37.2C20.1813 37.2 21.6373 37.0133 23.056 36.64C24.4747 36.2293 25.744 35.632 26.864 34.848C27.984 34.0267 28.88 33.0187 29.552 31.824C30.224 30.6293 30.56 29.2293 30.56 27.624C30.56 25.3093 29.6827 23.7227 27.928 22.864C26.1733 21.968 23.7653 21.52 20.704 21.52H16.056L12.864 36.696C13.3867 36.8453 14.0587 36.976 14.88 37.088C15.7013 37.1627 16.9707 37.2 18.688 37.2ZM19.752 18.552C20.4987 18.552 21.3387 18.5333 22.272 18.496C23.2427 18.4213 24.0453 18.3467 24.68 18.272C26.248 17.7867 27.536 17.208 28.544 16.536C29.552 15.8267 30.3547 15.0613 30.952 14.24C31.5493 13.4187 31.96 12.56 32.184 11.664C32.4453 10.7307 32.576 9.816 32.576 8.92C32.576 7.38933 32.0347 6.12 30.952 5.112C29.9067 4.104 28.0587 3.6 25.408 3.6C24.1387 3.6 23.0373 3.63733 22.104 3.712C21.208 3.74933 20.4427 3.80533 19.808 3.88L16.672 18.552H19.752ZM76.6358 26.336C75.5904 31.264 73.6118 34.8667 70.6997 37.144C67.8251 39.384 64.0171 40.504 59.2758 40.504C56.7744 40.504 54.6464 40.224 52.8918 39.664C51.1371 39.0667 49.6998 38.264 48.5798 37.256C47.4598 36.248 46.6384 35.0533 46.1158 33.672C45.6304 32.2533 45.3878 30.704 45.3878 29.024C45.3878 27.6427 45.5558 26.168 45.8918 24.6L50.2598 3.936H45.1638L45.8358 0.799997H61.7398L61.0678 3.936H56.5318L52.1638 24.488C52.0144 25.2347 51.8838 25.9253 51.7718 26.56C51.6971 27.1947 51.6598 27.8293 51.6598 28.464C51.6598 31.152 52.4064 33.2053 53.8998 34.624C55.3931 36.0427 57.7078 36.752 60.8438 36.752C67.4144 36.752 71.4651 33.2427 72.9958 26.224L77.8118 3.936H73.2198L73.8918 0.799997H87.1638L86.4918 3.936H81.3958L76.6358 26.336ZM80.7771 40L81.3931 36.864H86.4891L93.4891 3.936H88.3931L89.0651 0.799997H95.9531C96.6625 0.799997 97.5025 0.781331 98.4731 0.743998C99.4438 0.706665 100.433 0.669332 101.441 0.631999C102.486 0.557332 103.476 0.501331 104.409 0.463998C105.38 0.389333 106.182 0.352 106.817 0.352C110.476 0.352 113.444 0.781332 115.721 1.64C117.998 2.46133 119.772 3.52533 121.041 4.832C122.31 6.13866 123.169 7.59466 123.617 9.2C124.065 10.8053 124.289 12.392 124.289 13.96C124.289 17.88 123.729 21.4827 122.609 24.768C121.526 28.016 119.902 30.816 117.737 33.168C115.572 35.4827 112.884 37.2933 109.673 38.6C106.462 39.8693 102.748 40.504 98.5291 40.504C97.9318 40.504 97.1851 40.4667 96.2891 40.392C95.4305 40.3547 94.5158 40.2987 93.5451 40.224C92.5745 40.1867 91.6038 40.1307 90.6331 40.056C89.6625 40.0187 88.7851 40 88.0011 40H80.7771ZM105.305 3.488C104.26 3.488 103.233 3.50667 102.225 3.544C101.217 3.58133 100.414 3.656 99.8171 3.768L92.7611 37.144C92.9851 37.1813 93.3585 37.2187 93.8811 37.256C94.4038 37.256 94.9638 37.2747 95.5611 37.312C96.1958 37.312 96.7931 37.3307 97.3531 37.368C97.9131 37.368 98.3051 37.368 98.5291 37.368C102.113 37.368 105.1 36.6773 107.489 35.296C109.916 33.9147 111.838 32.1227 113.257 29.92C114.713 27.68 115.74 25.1413 116.337 22.304C116.972 19.4667 117.289 16.592 117.289 13.68C117.289 12.336 117.121 11.048 116.785 9.816C116.486 8.584 115.889 7.50133 114.993 6.568C114.097 5.63467 112.865 4.888 111.297 4.328C109.766 3.768 107.769 3.488 105.305 3.488ZM132.847 40H119.239L119.911 36.864H124.167L146.231 0.799997H152.167L157.655 36.864H161.799L161.127 40H145.279L145.951 36.864H150.935L149.423 27.008H134.639L128.703 36.864H133.519L132.847 40ZM136.599 23.872H149.143L147.407 10.936C147.37 10.824 147.351 10.4693 147.351 9.872C147.351 9.23733 147.332 8.54667 147.295 7.8C147.258 6.97867 147.239 6.04533 147.239 5H147.015L143.991 11.048L136.599 23.872ZM190.059 0.799997H204.283L203.611 3.936H198.851L182.779 23.368L179.923 36.864H184.571L183.899 40H167.883L168.555 36.864H173.651L176.507 23.424L167.995 3.936H162.899L163.571 0.799997H180.315L179.643 3.936H174.939L181.323 20.512L194.539 3.936H189.387L190.059 0.799997ZM203.722 40H190.114L190.786 36.864H195.042L217.106 0.799997H223.042L228.53 36.864H232.674L232.002 40H216.154L216.826 36.864H221.81L220.298 27.008H205.514L199.578 36.864H204.394L203.722 40ZM207.474 23.872H220.018L218.282 10.936C218.245 10.824 218.226 10.4693 218.226 9.872C218.226 9.23733 218.207 8.54667 218.17 7.8C218.133 6.97867 218.114 6.04533 218.114 5H217.89L214.866 11.048L207.474 23.872ZM252.729 18.608L267.793 3.936H263.257L263.929 0.799997H278.097L277.425 3.936H273.001L256.761 18.72L268.241 36.864H271.769L271.097 40H262.697L252.113 21.408H248.753L245.449 36.864H250.097L249.425 40H233.465L234.081 36.864H239.177L246.177 3.936H241.081L241.753 0.799997H257.769L257.097 3.936H252.449L249.313 18.608H252.729ZM310.753 26.336C309.708 31.264 307.729 34.8667 304.817 37.144C301.942 39.384 298.134 40.504 293.393 40.504C290.892 40.504 288.764 40.224 287.009 39.664C285.254 39.0667 283.817 38.264 282.697 37.256C281.577 36.248 280.756 35.0533 280.233 33.672C279.748 32.2533 279.505 30.704 279.505 29.024C279.505 27.6427 279.673 26.168 280.009 24.6L284.377 3.936H279.281L279.953 0.799997H295.857L295.185 3.936H290.649L286.281 24.488C286.132 25.2347 286.001 25.9253 285.889 26.56C285.814 27.1947 285.777 27.8293 285.777 28.464C285.777 31.152 286.524 33.2053 288.017 34.624C289.51 36.0427 291.825 36.752 294.961 36.752C301.532 36.752 305.582 33.2427 307.113 26.224L311.929 3.936H307.337L308.009 0.799997H321.281L320.609 3.936H315.513L310.753 26.336Z" fill="url(#paint0_linear_153_6)"/>
<defs>
<linearGradient id="paint0_linear_153_6" x1="159.5" y1="-18" x2="159.5" y2="56" gradientUnits="userSpaceOnUse">
<stop offset="0.40625" stop-color="#FF0000"/>
<stop offset="0.578125" stop-color="#EBFBFF"/>
</linearGradient>
</defs>
</svg>
